<svg xmlns="http://www.w3.org/2000/svg" viewBox="0 0 29 29"><title>icon-inst</title><g id="Слой_2" data-name="Слой 2"><g id="Layer_1" data-name="Layer 1"><path d="M14.5,7A7.48,7.48,0,1,0,22,14.44,7.5,7.5,0,0,0,14.5,7Zm0,12.28a4.79,4.79,0,1,1,4.79-4.79A4.82,4.82,0,0,1,14.5,19.24Z" style="fill:#fff"/><circle cx="22.28" cy="6.78" r="1.7" style="fill:#fff"/><path d="M26.66,2.4A8.33,8.33,0,0,0,20.52,0h-12C3.39,0,0,3.39,0,8.48v12a8.41,8.41,0,0,0,2.46,6.26A8.53,8.53,0,0,0,8.54,29H20.46a8.63,8.63,0,0,0,6.14-2.28,8.37,8.37,0,0,0,2.4-6.2v-12A8.38,8.38,0,0,0,26.66,2.4Zm-.35,18.13a5.65,5.65,0,0,1-1.58,4.27,6,6,0,0,1-4.27,1.52H8.54a6,6,0,0,1-4.27-1.52,5.88,5.88,0,0,1-1.58-4.33v-12A5.83,5.83,0,0,1,4.27,4.21,6,6,0,0,1,8.54,2.69h12a5.83,5.83,0,0,1,4.27,1.58,6,6,0,0,1,1.58,4.21v12Z" style="fill:#fff"/></g></g></svg>