<svg xmlns="http://www.w3.org/2000/svg" viewBox="0 0 36.7 21.49"><title>icon-vk</title><g id="Слой_2" data-name="Слой 2"><g id="Layer_1" data-name="Layer 1"><path d="M30.48,10.54s4.84-6.82,5.32-9.06c.16-.8-.19-1.25-1-1.25H30.58a1.53,1.53,0,0,0-1.6,1,38,38,0,0,1-5,7.88c-.89,1-1.34,1.28-1.83,1.28s-.58-.33-.58-1.22V1.41c0-1.09-.13-1.41-1-1.41H13.8A.74.74,0,0,0,13,.7c0,1,1.57,1.26,1.57,4v5.73c0,1.15-.06,1.6-.61,1.6-1.44,0-4.87-5-6.79-10.6C6.76.32,6.34,0,5.25,0H1.06A1,1,0,0,0,0,1C0,2.15,1.31,7.33,6.47,14.28c3.46,4.68,8,7.2,12.1,7.2,2.5,0,3.11-.42,3.11-1.47V16.43c0-.9.35-1.28.86-1.28s1.59.19,4,2.53c2.82,2.69,3,3.81,4.55,3.81h4.71c.48,0,.93-.22.93-1,0-1.06-1.38-2.95-3.49-5.19-.86-1.15-2.27-2.4-2.72-3-.64-.67-.45-1.06,0-1.76Z" style="fill:#fff"/></g></g></svg>