<svg xmlns="http://www.w3.org/2000/svg" viewBox="0 0 70.19 67"><title>icon-advantages-4</title><g id="Слой_2" data-name="Слой 2"><g id="Layer_1" data-name="Layer 1"><path d="M65.57,17.73C65,16.8,64.48,15.9,63.87,15a6.36,6.36,0,1,0-8.71-8.71c-.87-.61-1.77-1.17-2.69-1.7a9.55,9.55,0,1,1,13.1,13.1Z" style="fill:#323b47"/><path d="M67,35.09A31.75,31.75,0,0,1,58.7,56.5l7.84,7.84a1.56,1.56,0,0,1-2.2,2.2L56.5,58.7a31.77,31.77,0,0,1-42.81,0L5.85,66.54a1.56,1.56,0,0,1-2.2-2.2l7.84-7.84A31.89,31.89,0,1,1,67,35.09ZM35.09,6.38A28.71,28.71,0,1,0,63.81,35.09,28.71,28.71,0,0,0,35.09,6.38Z" style="fill:#323b47"/><path d="M36.69,41.25V55.83a1.6,1.6,0,1,1-3.19,0V41.25a6.31,6.31,0,0,1-3.86-9.41L22.79,25a1.56,1.56,0,0,1,2.2-2.2l6.85,6.85a6.31,6.31,0,0,1,3.26-.92,6.37,6.37,0,0,1,1.6,12.54Zm-1.6-9.34a3.19,3.19,0,1,0,3.19,3.19A3.19,3.19,0,0,0,35.09,31.9Z" style="fill:#51d499"/><path d="M9.57,3.19A6.36,6.36,0,0,0,6.32,15c-.61.87-1.17,1.77-1.7,2.69a9.55,9.55,0,1,1,13.1-13.1c-.93.53-1.82,1.09-2.69,1.7A6.35,6.35,0,0,0,9.57,3.19Z" style="fill:#323b47"/></g></g></svg>