<svg xmlns="http://www.w3.org/2000/svg" viewBox="0 0 29.69 29.83"><title>icon-wa</title><g id="Слой_2" data-name="Слой 2"><g id="Layer_1" data-name="Layer 1"><path d="M22.14,20.06a3.8,3.8,0,0,1-2.49,1.76,5.06,5.06,0,0,1-2.33-.15,21.24,21.24,0,0,1-2.11-.78A16.46,16.46,0,0,1,8.9,15.32,7.18,7.18,0,0,1,7.39,11.5,4.14,4.14,0,0,1,8.69,8.42a1.36,1.36,0,0,1,1-.46h.71c.23,0,.53-.09.83.63s1,2.56,1.14,2.74a.68.68,0,0,1,0,.65,2.52,2.52,0,0,1-.37.62c-.18.22-.39.48-.55.65s-.38.38-.16.75a11.13,11.13,0,0,0,2.05,2.56,10.09,10.09,0,0,0,3,1.83c.37.19.58.15.8-.09s.92-1.08,1.17-1.45.49-.31.83-.18,2.15,1,2.52,1.2.62.28.71.43A3.09,3.09,0,0,1,22.14,20.06Z" style="fill:#fff"/><path d="M14.91,2.5A12.29,12.29,0,0,0,4.5,21.32l.29.46L3.55,26.32,8.2,25.1l.45.27a12.27,12.27,0,0,0,6.25,1.71h0a12.29,12.29,0,0,0,0-24.58Zm0,27.08h0a14.77,14.77,0,0,1-7.06-1.8L0,29.83l2.1-7.66a14.78,14.78,0,1,1,12.81,7.4Z" style="fill:#fff"/></g></g></svg>