<svg xmlns="http://www.w3.org/2000/svg" viewBox="0 0 49.52 67"><title>icon-advantages-2</title><g id="Слой_2" data-name="Слой 2"><g id="Layer_1" data-name="Layer 1"><path d="M43.7,67H5.83A5.83,5.83,0,0,1,0,61.17v-51A5.83,5.83,0,0,1,5.83,4.37H10.2a1.46,1.46,0,1,1,0,2.91H5.83A2.91,2.91,0,0,0,2.91,10.2v51a2.91,2.91,0,0,0,2.91,2.91H43.7a2.91,2.91,0,0,0,2.91-2.91v-51A2.91,2.91,0,0,0,43.7,7.28H39.33a1.46,1.46,0,1,1,0-2.91H43.7a5.83,5.83,0,0,1,5.83,5.83v51A5.83,5.83,0,0,1,43.7,67ZM40.78,11.65a1.46,1.46,0,0,1-1.46,1.46H10.2a1.46,1.46,0,0,1,0-2.91,5.39,5.39,0,0,0,2.91-1.46L16,5.83a4.05,4.05,0,0,1,2.91-1.46h1.46a4.37,4.37,0,1,1,8.74,0h1.46A3.71,3.71,0,0,1,33.5,5.83l2.91,2.91a5.39,5.39,0,0,0,2.91,1.46A1.46,1.46,0,0,1,40.78,11.65Zm-16-8.74A1.46,1.46,0,0,0,23.3,4.37h2.91A1.46,1.46,0,0,0,24.76,2.91Zm7.81,5.83a3.5,3.5,0,0,0-2.65-1.46H19.6a3.5,3.5,0,0,0-2.65,1.46L15.63,10.2H33.9Z" style="fill:#323b47"/><path d="M37.87,51.71H11.65a1.46,1.46,0,0,1,0-2.91H37.87a1.46,1.46,0,0,1,0,2.91Z" style="fill:#51d499"/><path d="M37.87,40.05H11.65a1.46,1.46,0,0,1,0-2.91H37.87a1.46,1.46,0,0,1,0,2.91Z" style="fill:#51d499"/><path d="M37.87,28.4H11.65a1.46,1.46,0,1,1,0-2.91H37.87a1.46,1.46,0,0,1,0,2.91Z" style="fill:#51d499"/></g></g></svg>