<svg xmlns="http://www.w3.org/2000/svg" viewBox="0 0 170.25 51.35"><defs><style>.cls-1{fill:#51d499;}.cls-2{fill:#fff;}</style></defs><title>Ресурс 4</title><g id="Слой_2" data-name="Слой 2"><g id="Layer_1" data-name="Layer 1"><path class="cls-1" d="M74.79,6.51,64.86,0h0L37.39,18,9.93,0,0,6.51V44.84l9.93,6.51,27.46-18,27.46,18,9.93-6.51Zm-62,27.6V17.24L25.7,25.67Zm49.13,0L49.09,25.67,62,17.24Z"/><path class="cls-2" d="M99.89,6.69,112.75,21.2V6.69h6.34v24h-5.87L100.37,16.2V30.71h-6.3v-24Z"/><path class="cls-2" d="M129.56,6.69v24h-6.39v-24Z"/><path class="cls-2" d="M140.2,6.69l6,8.86h1l6-8.86h7.26l-7.95,11.38,8.26,12.64h-7.39l-6.08-9.47h-1.13l-6,9.47h-7.43L141,18.2l-8-11.51Z"/><path class="cls-2" d="M170.22,6.69v24h-6.39v-24Z"/><path class="cls-2" d="M102.54,47h-2.06l-3.57-3.58-1.38,1.23V47H93.87V38.49h1.67v4.35l1.63-1.73,3-2.62h2.1v.08l-4.18,3.77,4.44,4.51Z"/><path class="cls-2" d="M118.48,42.45c0,2.14,1.32,3.22,2.64,3.23s2.67-1.06,2.68-3.23v-4h1.68v4a4.35,4.35,0,1,1-8.68,0v-4h1.68Z"/><path class="cls-2" d="M142.62,47H141V38.49h4.17c2,0,3.36.92,3.36,2.89s-1.54,2.95-3.38,2.95h-2.48Zm2.5-7h-2.5v3h2.49c1,0,1.73-.4,1.73-1.55S146.08,39.94,145.13,39.94Z"/><path class="cls-2" d="M165.1,42H170v1.39H165.1v2.09h5.15V47h-6.77V38.49h6.77v1.44H165.1Z"/></g></g></svg>