<?xml version="1.0" encoding="utf-8"?><svg width="299" height="308" viewBox="0 0 299 308" xmlns="http://www.w3.org/2000/svg" xmlns:xlink="http://www.w3.org/1999/xlink"><svg viewBox="-5 -5 76.96 77" width="76.96" height="77" id="icon-advantages-1"><title>icon-advantages-1</title><g data-name="Layer 1"><path d="M63.94 19.51a1.39 1.39 0 0 1-.27.4L23 60.58a1.38 1.38 0 0 1-.69.63L2.12 66.87H1.91a1.55 1.55 0 0 1-.42.07 1.35 1.35 0 0 1-.41-.06H1a1.37 1.37 0 0 1-.35-.21 1.29 1.29 0 0 1-.16-.13 1.29 1.29 0 0 1-.13-.16 1.39 1.39 0 0 1-.21-.35v-.09a1.44 1.44 0 0 1-.15-.41 1.61 1.61 0 0 1 .07-.42v-.07-.14l5.71-20.21a1.39 1.39 0 0 1 .64-.69l40-40 .19-.19.44-.44h.07a11.68 11.68 0 0 1 16.82 16.14zm-5.51 1.62l-5.27-5.27-34.45 34.45 3.46 7zM16.66 48.27l34.48-34.43-5.27-5.27L9.63 44.81zM55.18 2.91a8.85 8.85 0 0 0-6.54 2.91l-.75.75 12.55 12.55.77-.77a8.88 8.88 0 0 0-6-15.43z" fill="#323b47"/><path fill="#51d499" d="M3.65 63.35l4.06-1.13-2.92-2.92-1.14 4.05zM5.67 56.15l5.19 5.19 8.92-2.5L16 51l-7.84-3.77z"/></g></svg><svg viewBox="-5 -5 59.52 77" width="59.52" height="77" id="icon-advantages-2" x="77" y="77"><title>icon-advantages-2</title><g data-name="Layer 1"><path d="M43.7 67H5.83A5.83 5.83 0 0 1 0 61.17v-51a5.83 5.83 0 0 1 5.83-5.8h4.37a1.46 1.46 0 1 1 0 2.91H5.83a2.91 2.91 0 0 0-2.92 2.92v51a2.91 2.91 0 0 0 2.91 2.91H43.7a2.91 2.91 0 0 0 2.91-2.91v-51a2.91 2.91 0 0 0-2.91-2.92h-4.37a1.46 1.46 0 1 1 0-2.91h4.37a5.83 5.83 0 0 1 5.83 5.83v51A5.83 5.83 0 0 1 43.7 67zm-2.92-55.35a1.46 1.46 0 0 1-1.46 1.46H10.2a1.46 1.46 0 0 1 0-2.91 5.39 5.39 0 0 0 2.91-1.46L16 5.83a4.05 4.05 0 0 1 2.91-1.46h1.46a4.37 4.37 0 1 1 8.74 0h1.46a3.71 3.71 0 0 1 2.93 1.46l2.91 2.91a5.39 5.39 0 0 0 2.91 1.46 1.46 1.46 0 0 1 1.46 1.45zm-16-8.74a1.46 1.46 0 0 0-1.48 1.46h2.91a1.46 1.46 0 0 0-1.45-1.46zm7.81 5.83a3.5 3.5 0 0 0-2.65-1.46H19.6a3.5 3.5 0 0 0-2.65 1.46l-1.32 1.46H33.9z" fill="#323b47"/><path d="M37.87 51.71H11.65a1.46 1.46 0 0 1 0-2.91h26.22a1.46 1.46 0 0 1 0 2.91zM37.87 40.05H11.65a1.46 1.46 0 0 1 0-2.91h26.22a1.46 1.46 0 0 1 0 2.91zM37.87 28.4H11.65a1.46 1.46 0 1 1 0-2.91h26.22a1.46 1.46 0 0 1 0 2.91z" fill="#51d499"/></g></svg><svg viewBox="-5 -5 80.08 77" width="80.08" height="77" id="icon-advantages-3" x="137" y="154"><title>icon-advantages-3</title><g data-name="Layer 1"><path d="M69.22 7.19c-9 13.44-36.28 40.64-36.28 40.64l-.19.21a7.56 7.56 0 0 1-6.27 2.14 9.27 9.27 0 0 1-2.33 8.65S12.69 73 0 64c0 0 6.84-1.92 7.44-7.44 0 0-.91-5.57 4.11-10.72a8.74 8.74 0 0 1 8.29-2.43A7.54 7.54 0 0 1 22 37.29l.21-.19S49.41 9.88 62.88.85a4.54 4.54 0 0 1 6.34 6.34zM22 48a5.86 5.86 0 0 0-4.16-1.77A5.8 5.8 0 0 0 13.68 48a11.08 11.08 0 0 0-3.27 8.65 11.59 11.59 0 0 1-3.89 7.27 10.86 10.86 0 0 0 2 .18c7.23 0 13.33-7.1 13.39-7.16S26 52 22 48zm.82-5.3a4.48 4.48 0 0 0 1.3 3.21 4.67 4.67 0 0 0 3.27 1.36 4.41 4.41 0 0 0 3.15-1.33l2.37-2.39.42-.43L27 36.69l-.44.42-2.37 2.34a4.46 4.46 0 0 0-1.34 3.21zM66.6 3.48A1.48 1.48 0 0 0 65.54 3a1.61 1.61 0 0 0-1 .34c-9.44 6.4-27.38 23.45-35.46 31.27l6.33 6.33c7.83-8.07 24.92-26 31.33-35.53a1.48 1.48 0 0 0-.14-1.93z" fill="#323b47"/><path d="M22.07 48a5.86 5.86 0 0 0-4.16-1.77A5.8 5.8 0 0 0 13.73 48a11.08 11.08 0 0 0-3.27 8.65 11.59 11.59 0 0 1-3.89 7.27 10.86 10.86 0 0 0 2 .18c7.23 0 13.33-7.1 13.39-7.16s4.12-4.94.11-8.94z" fill="#51d499"/></g></svg><svg viewBox="-5 -5 80.19 77" width="80.19" height="77" id="icon-advantages-4" x="218" y="231"><title>icon-advantages-4</title><g data-name="Layer 1"><path d="M65.57 17.73c-.57-.93-1.09-1.83-1.7-2.73a6.36 6.36 0 1 0-8.71-8.71c-.87-.61-1.77-1.17-2.69-1.7a9.55 9.55 0 1 1 13.1 13.1z" fill="#323b47"/><path d="M67 35.09a31.75 31.75 0 0 1-8.3 21.41l7.84 7.84a1.56 1.56 0 0 1-2.2 2.2L56.5 58.7a31.77 31.77 0 0 1-42.81 0l-7.84 7.84a1.56 1.56 0 0 1-2.2-2.2l7.84-7.84A31.89 31.89 0 1 1 67 35.09zM35.09 6.38a28.71 28.71 0 1 0 28.72 28.71A28.71 28.71 0 0 0 35.09 6.38z" fill="#323b47"/><path d="M36.69 41.25v14.58a1.6 1.6 0 1 1-3.19 0V41.25a6.31 6.31 0 0 1-3.86-9.41L22.79 25a1.56 1.56 0 0 1 2.2-2.2l6.85 6.85a6.31 6.31 0 0 1 3.26-.92 6.37 6.37 0 0 1 1.6 12.54zm-1.6-9.34a3.19 3.19 0 1 0 3.19 3.19 3.19 3.19 0 0 0-3.19-3.2z" fill="#51d499"/><path d="M9.57 3.19A6.36 6.36 0 0 0 6.32 15c-.61.87-1.17 1.77-1.7 2.69a9.55 9.55 0 1 1 13.1-13.1c-.93.53-1.82 1.09-2.69 1.7a6.35 6.35 0 0 0-5.46-3.1z" fill="#323b47"/></g></svg></svg>