<svg xmlns="http://www.w3.org/2000/svg" viewBox="0 0 70.08 67"><title>icon-advantages-3</title><g id="Слой_2" data-name="Слой 2"><g id="Layer_1" data-name="Layer 1"><path d="M69.22,7.19c-9,13.44-36.28,40.64-36.28,40.64h0l-.19.21a7.56,7.56,0,0,1-6.27,2.14,9.27,9.27,0,0,1-2.33,8.65S12.69,73,0,64c0,0,6.84-1.92,7.44-7.44,0,0-.91-5.57,4.11-10.72a8.74,8.74,0,0,1,8.29-2.43A7.54,7.54,0,0,1,22,37.29l.21-.19h0S49.41,9.88,62.88.85a4.54,4.54,0,0,1,6.34,6.34ZM22,48a5.86,5.86,0,0,0-4.16-1.77A5.8,5.8,0,0,0,13.68,48a11.08,11.08,0,0,0-3.27,8.65,11.59,11.59,0,0,1-3.89,7.27,10.86,10.86,0,0,0,2,.18c7.23,0,13.33-7.1,13.39-7.16S26,52,22,48Zm.82-5.3a4.48,4.48,0,0,0,1.3,3.21,4.67,4.67,0,0,0,3.27,1.36,4.41,4.41,0,0,0,3.15-1.33l2.37-2.39.42-.43L27,36.69l-.44.42-2.37,2.34A4.46,4.46,0,0,0,22.85,42.66ZM66.6,3.48A1.48,1.48,0,0,0,65.54,3a1.61,1.61,0,0,0-1,.34C55.1,9.74,37.16,26.79,29.08,34.61l6.33,6.33c7.83-8.07,24.92-26,31.33-35.53A1.48,1.48,0,0,0,66.6,3.48Z" style="fill:#323b47"/><path d="M22.07,48a5.86,5.86,0,0,0-4.16-1.77A5.8,5.8,0,0,0,13.73,48a11.08,11.08,0,0,0-3.27,8.65,11.59,11.59,0,0,1-3.89,7.27,10.86,10.86,0,0,0,2,.18c7.23,0,13.33-7.1,13.39-7.16S26.08,52,22.07,48Z" style="fill:#51d499"/></g></g></svg>